<mxfile host="app.diagrams.net" modified="2023-04-18T22:40:30.158Z" agent="Mozilla/5.0 (Windows NT 10.0; Win64; x64) AppleWebKit/537.36 (KHTML, like Gecko) Chrome/112.0.0.0 Safari/537.36" version="21.1.8" etag="M-yZ61pmrY9cj5umCxej" type="device">
  <diagram id="n6XRKxezFwlwQugcS6bt" name="Страница 1">
    <mxGraphModel dx="880" dy="522" grid="1" gridSize="10" guides="1" tooltips="1" connect="1" arrows="1" fold="1" page="1" pageScale="1" pageWidth="827" pageHeight="1169" math="0" shadow="0">
      <root>
        <mxCell id="0" />
        <mxCell id="1" parent="0" />
        <mxCell id="OVgtRjmaENTYtYLkprRq-135" value="" style="edgeStyle=orthogonalEdgeStyle;rounded=0;orthogonalLoop=1;jettySize=auto;html=1;" edge="1" parent="1" source="OVgtRjmaENTYtYLkprRq-129" target="OVgtRjmaENTYtYLkprRq-131">
          <mxGeometry relative="1" as="geometry" />
        </mxCell>
        <mxCell id="OVgtRjmaENTYtYLkprRq-129" value="Власник житла" style="rounded=0;whiteSpace=wrap;html=1;" vertex="1" parent="1">
          <mxGeometry x="364" y="70" width="100" height="50" as="geometry" />
        </mxCell>
        <mxCell id="OVgtRjmaENTYtYLkprRq-139" value="" style="edgeStyle=orthogonalEdgeStyle;rounded=0;orthogonalLoop=1;jettySize=auto;html=1;" edge="1" parent="1" source="OVgtRjmaENTYtYLkprRq-130" target="OVgtRjmaENTYtYLkprRq-132">
          <mxGeometry relative="1" as="geometry" />
        </mxCell>
        <mxCell id="OVgtRjmaENTYtYLkprRq-130" value="Ріелтор" style="rounded=0;whiteSpace=wrap;html=1;" vertex="1" parent="1">
          <mxGeometry x="570" y="210" width="100" height="50" as="geometry" />
        </mxCell>
        <mxCell id="OVgtRjmaENTYtYLkprRq-137" value="" style="edgeStyle=orthogonalEdgeStyle;rounded=0;orthogonalLoop=1;jettySize=auto;html=1;" edge="1" parent="1" source="OVgtRjmaENTYtYLkprRq-131" target="OVgtRjmaENTYtYLkprRq-130">
          <mxGeometry relative="1" as="geometry" />
        </mxCell>
        <mxCell id="OVgtRjmaENTYtYLkprRq-143" value="" style="edgeStyle=orthogonalEdgeStyle;rounded=0;orthogonalLoop=1;jettySize=auto;html=1;" edge="1" parent="1" source="OVgtRjmaENTYtYLkprRq-131" target="OVgtRjmaENTYtYLkprRq-133">
          <mxGeometry relative="1" as="geometry">
            <Array as="points">
              <mxPoint x="300" y="220" />
              <mxPoint x="300" y="220" />
            </Array>
          </mxGeometry>
        </mxCell>
        <mxCell id="OVgtRjmaENTYtYLkprRq-149" value="" style="edgeStyle=orthogonalEdgeStyle;rounded=0;orthogonalLoop=1;jettySize=auto;html=1;" edge="1" parent="1" source="OVgtRjmaENTYtYLkprRq-131" target="OVgtRjmaENTYtYLkprRq-134">
          <mxGeometry relative="1" as="geometry" />
        </mxCell>
        <mxCell id="OVgtRjmaENTYtYLkprRq-131" value="Агентство" style="rounded=0;whiteSpace=wrap;html=1;" vertex="1" parent="1">
          <mxGeometry x="359" y="210" width="110" height="50" as="geometry" />
        </mxCell>
        <mxCell id="OVgtRjmaENTYtYLkprRq-132" value="Оцінка житла" style="rounded=0;whiteSpace=wrap;html=1;" vertex="1" parent="1">
          <mxGeometry x="570" y="320" width="100" height="50" as="geometry" />
        </mxCell>
        <mxCell id="OVgtRjmaENTYtYLkprRq-146" value="" style="edgeStyle=orthogonalEdgeStyle;rounded=0;orthogonalLoop=1;jettySize=auto;html=1;" edge="1" parent="1" source="OVgtRjmaENTYtYLkprRq-133" target="OVgtRjmaENTYtYLkprRq-131">
          <mxGeometry relative="1" as="geometry">
            <Array as="points">
              <mxPoint x="310" y="250" />
              <mxPoint x="310" y="250" />
            </Array>
          </mxGeometry>
        </mxCell>
        <mxCell id="OVgtRjmaENTYtYLkprRq-133" value="База даних" style="rounded=0;whiteSpace=wrap;html=1;" vertex="1" parent="1">
          <mxGeometry x="150" y="210" width="100" height="50" as="geometry" />
        </mxCell>
        <mxCell id="OVgtRjmaENTYtYLkprRq-134" value="Квартиронаймач" style="rounded=0;whiteSpace=wrap;html=1;" vertex="1" parent="1">
          <mxGeometry x="354" y="370" width="120" height="60" as="geometry" />
        </mxCell>
        <mxCell id="OVgtRjmaENTYtYLkprRq-136" value="1.Пропонує своє житло" style="text;html=1;strokeColor=none;fillColor=none;align=center;verticalAlign=middle;whiteSpace=wrap;rounded=0;" vertex="1" parent="1">
          <mxGeometry x="420" y="140" width="60" height="30" as="geometry" />
        </mxCell>
        <mxCell id="OVgtRjmaENTYtYLkprRq-138" value="2. Передання житла ріелтору" style="text;html=1;strokeColor=none;fillColor=none;align=center;verticalAlign=middle;whiteSpace=wrap;rounded=0;" vertex="1" parent="1">
          <mxGeometry x="480" y="200" width="80" height="30" as="geometry" />
        </mxCell>
        <mxCell id="OVgtRjmaENTYtYLkprRq-140" value="3. Оцінює житло" style="text;html=1;strokeColor=none;fillColor=none;align=center;verticalAlign=middle;whiteSpace=wrap;rounded=0;" vertex="1" parent="1">
          <mxGeometry x="630" y="270" width="60" height="30" as="geometry" />
        </mxCell>
        <mxCell id="OVgtRjmaENTYtYLkprRq-141" value="" style="endArrow=classic;html=1;rounded=0;entryX=0;entryY=0;entryDx=0;entryDy=0;exitX=1;exitY=1;exitDx=0;exitDy=0;" edge="1" parent="1" source="OVgtRjmaENTYtYLkprRq-131" target="OVgtRjmaENTYtYLkprRq-132">
          <mxGeometry width="50" height="50" relative="1" as="geometry">
            <mxPoint x="470" y="220" as="sourcePoint" />
            <mxPoint x="520" y="170" as="targetPoint" />
          </mxGeometry>
        </mxCell>
        <mxCell id="OVgtRjmaENTYtYLkprRq-142" value="4.Приймає" style="text;html=1;strokeColor=none;fillColor=none;align=center;verticalAlign=middle;whiteSpace=wrap;rounded=0;" vertex="1" parent="1">
          <mxGeometry x="480" y="290" width="60" height="30" as="geometry" />
        </mxCell>
        <mxCell id="OVgtRjmaENTYtYLkprRq-144" value="5. Внесення житла&amp;nbsp;" style="text;html=1;strokeColor=none;fillColor=none;align=center;verticalAlign=middle;whiteSpace=wrap;rounded=0;" vertex="1" parent="1">
          <mxGeometry x="270" y="190" width="70" height="30" as="geometry" />
        </mxCell>
        <mxCell id="OVgtRjmaENTYtYLkprRq-148" value="6. Список усього житла" style="text;html=1;strokeColor=none;fillColor=none;align=center;verticalAlign=middle;whiteSpace=wrap;rounded=0;" vertex="1" parent="1">
          <mxGeometry x="265" y="260" width="80" height="30" as="geometry" />
        </mxCell>
        <mxCell id="OVgtRjmaENTYtYLkprRq-150" value="7. Пропонує список" style="text;html=1;strokeColor=none;fillColor=none;align=center;verticalAlign=middle;whiteSpace=wrap;rounded=0;" vertex="1" parent="1">
          <mxGeometry x="340" y="320" width="70" height="30" as="geometry" />
        </mxCell>
      </root>
    </mxGraphModel>
  </diagram>
</mxfile>
